<?xml version="1.0" encoding="utf-8"?>
<!-- Generator: Adobe Illustrator 23.0.2, SVG Export Plug-In . SVG Version: 6.00 Build 0)  -->
<svg version="1.1" id="Camada_1" xmlns="http://www.w3.org/2000/svg" xmlns:xlink="http://www.w3.org/1999/xlink" x="0px" y="0px"
	 viewBox="0 0 256 256" style="enable-background:new 0 0 256 256;" xml:space="preserve">
<style type="text/css">
	.st0{fill:#FFFFFF;}
	.st1{fill:#0026FF;}
</style>
<rect class="st0" width="256" height="256"/>
<polygon class="st1" points="0,54.1 0,0 256,0 "/>
<polygon class="st1" points="256,201.9 256,256 0,256 "/>
<g>
	
		<image style="overflow:visible;opacity:0.3;enable-background:new    ;" width="252" height="252" xlink:href="D377C26.png"  transform="matrix(1 0 0 1 2 2)">
	</image>
	<g>
		<path class="st0" d="M170.5,235.1h-85c-35.7,0-64.6-28.9-64.6-64.6v-85c0-35.7,28.9-64.6,64.6-64.6h85c35.7,0,64.6,28.9,64.6,64.6
			v85C235.1,206.2,206.2,235.1,170.5,235.1z"/>
	</g>
</g>
<path class="st1" d="M122.6,145c-5.2,0-9.5-1.2-13.5-3.2c-4-2.4-7.1-5.2-9.5-9.1c-2.4-4-3.6-8.3-3.6-13.1c0-4.8,1.2-9.1,3.6-13.1
	s5.6-6.7,9.5-9.1c4-2.4,8.7-3.2,13.5-3.2c4,0,7.9,0.8,11.1,2c3.2,1.6,6.3,3.6,8.3,6.3l-6,5.6c-3.6-4-7.9-6-13.1-6
	c-3.6,0-6.3,0.8-9.1,2.4c-2.8,1.6-4.8,3.6-6.3,6.3c-1.6,2.8-2.4,5.6-2.4,9.1c0,3.2,0.8,6.3,2.4,9.1s3.6,4.8,6.3,6.3
	c2.8,1.6,5.6,2.4,9.1,2.4c5.2,0,9.5-2,13.1-6l6,5.6c-2.4,2.8-5.2,4.8-8.7,6.3C130.6,144.3,126.6,145,122.6,145z"/>
<path class="st1" d="M90.9,58.9c-18.7,0-33.3,15.1-33.3,33.3v59.1c0,18.7,15.1,33.3,33.3,33.3H150c18.7,0,33.3-15.1,33.3-33.3v-59
	c0-18.7-15.1-33.3-33.3-33.3H90.9V58.9z M90.9,67.3H150c13.5,0,24.6,11.1,24.6,24.6V151c0,13.5-11.1,24.6-24.6,24.6H90.9
	c-13.5,0-24.6-11.1-24.6-24.6V91.9C66.3,78.4,77.4,67.3,90.9,67.3z"/>
<path class="st1" d="M178.6,79.6c0.4,0.8,0.4,1.2,0.8,2c0.4,2,1.2,3.6,1.6,5.2c0.4,0.8,0.4,1.6,0.4,2s0,0.8,0,1.2c0,0.8,0,2-0.4,2.8
	c5.2,5.6,8.3,13.1,8.3,21v44.8c0,17.5-14.3,31.7-31.7,31.7h-44.8c-10.3,0-19.4-5.2-25.4-12.7c-1.6,0.4-3.2,0.4-4.8-0.4
	c-1.2-0.4-2.8-1.2-4-1.6s-2-0.4-2.8-0.8c6.3,13.9,20.2,23.8,36.9,23.8h44.8c22.2,0,40.5-18.3,40.5-40.5v-44.8
	C197.6,99,190.1,86.7,178.6,79.6z"/>
</svg>
